<svg width="83" height="77" viewBox="0 0 83 77" fill="none" xmlns="http://www.w3.org/2000/svg">
<path d="M41.4967 23.6675C37.2555 23.6675 33.1881 25.2305 30.1891 28.0127C27.1902 30.7948 25.5054 34.5682 25.5054 38.5028C25.5054 42.4374 27.1902 46.2108 30.1891 48.993C33.1881 51.7751 37.2555 53.3382 41.4967 53.3382C45.7379 53.3382 49.8053 51.7751 52.8043 48.993C55.8032 46.2108 57.488 42.4374 57.488 38.5028C57.488 34.5682 55.8032 30.7948 52.8043 28.0127C49.8053 25.2305 45.7379 23.6675 41.4967 23.6675ZM41.4967 48.1374C38.7414 48.1374 36.099 47.122 34.1507 45.3146C32.2024 43.5071 31.1079 41.0557 31.1079 38.4996C31.1079 35.9435 32.2024 33.4921 34.1507 31.6846C36.099 29.8772 38.7414 28.8618 41.4967 28.8618C44.252 28.8618 46.8944 29.8772 48.8427 31.6846C50.791 33.4921 51.8855 35.9435 51.8855 38.4996C51.8855 41.0557 50.791 43.5071 48.8427 45.3146C46.8944 47.122 44.252 48.1374 41.4967 48.1374Z" fill="#5D5C64"/>
<path d="M58.1207 26.5807C60.1796 26.5807 61.8487 25.0323 61.8487 23.1222C61.8487 21.212 60.1796 19.6636 58.1207 19.6636C56.0617 19.6636 54.3926 21.212 54.3926 23.1222C54.3926 25.0323 56.0617 26.5807 58.1207 26.5807Z" fill="#5D5C64"/>
<path d="M71.0099 19.6057C70.2093 17.6877 68.9858 15.9459 67.4178 14.4918C65.8498 13.0377 63.9718 11.9034 61.9041 11.1614C59.4844 10.3187 56.9282 9.86309 54.3442 9.81387C51.0138 9.67912 49.959 9.64062 41.5138 9.64062C33.0685 9.64062 31.986 9.64062 28.6833 9.81387C26.1013 9.86058 23.5469 10.3163 21.1303 11.1614C19.062 11.9025 17.1836 13.0365 15.6154 14.4908C14.0473 15.945 12.8242 17.6872 12.0245 19.6057C11.1161 21.8503 10.626 24.222 10.5755 26.6191C10.4268 29.7055 10.3818 30.6841 10.3818 38.522C10.3818 46.3568 10.3818 47.3546 10.5755 50.425C10.6274 52.8248 11.115 55.1925 12.0245 57.4416C12.8265 59.3594 14.0508 61.1009 15.6193 62.5549C17.1878 64.0089 19.0659 65.1434 21.1338 65.8859C23.5458 66.7624 26.1012 67.2507 28.6903 67.3297C32.0206 67.4644 33.0754 67.5061 41.5207 67.5061C49.9659 67.5061 51.0484 67.5061 54.3511 67.3297C56.9348 67.2809 59.491 66.8264 61.911 65.9854C63.9782 65.2416 65.8557 64.1063 67.4235 62.6518C68.9913 61.1973 70.2151 59.4556 71.0168 57.5378C71.9263 55.292 72.414 52.9242 72.4658 50.5244C72.6145 47.438 72.6595 46.4595 72.6595 38.6215C72.6595 30.7835 72.6595 29.789 72.4658 26.7186C72.4256 24.2875 71.933 21.8812 71.0099 19.6057ZM66.7976 50.1875C66.7753 52.0365 66.4115 53.8683 65.7221 55.6032C65.2027 56.8508 64.4076 57.9838 63.388 58.9292C62.3683 59.8746 61.1466 60.6116 59.8014 61.0927C57.952 61.7293 55.9985 62.0668 54.026 62.0905C50.7406 62.2316 49.8138 62.2669 41.3893 62.2669C32.9578 62.2669 32.0967 62.2669 28.749 62.0905C26.7775 62.0681 24.825 61.7305 22.9771 61.0927C21.6273 60.6146 20.4006 59.8789 19.3766 58.9333C18.3525 57.9877 17.5538 56.8532 17.0322 55.6032C16.3525 53.8869 15.9889 52.0767 15.9567 50.2485C15.808 47.2006 15.7734 46.3408 15.7734 38.5252C15.7734 30.7065 15.7734 29.9077 15.9567 26.7988C15.979 24.9509 16.3428 23.1202 17.0322 21.3863C18.087 18.855 20.2485 16.8626 22.9771 15.8937C24.8259 15.2589 26.7779 14.9214 28.749 14.8959C32.0379 14.7579 32.9613 14.7194 41.3893 14.7194C49.8172 14.7194 50.6818 14.7194 54.026 14.8959C55.9987 14.9179 57.9524 15.2554 59.8014 15.8937C61.1465 16.3758 62.368 17.1135 63.3876 18.0594C64.4072 19.0053 65.2024 20.1385 65.7221 21.3863C66.4018 23.1026 66.7654 24.9128 66.7976 26.741C66.9463 29.7922 66.9844 30.6488 66.9844 38.4675C66.9844 46.283 66.9844 47.1236 66.8357 50.1908H66.7976V50.1875Z" fill="#5D5C64"/>
</svg>
