<svg width="72" height="69" viewBox="0 0 72 69" fill="none" xmlns="http://www.w3.org/2000/svg">
<g opacity="0.12">
<path d="M35.708 17.1948C33.928 17.1948 32.1879 17.7007 30.7079 18.6484C29.2278 19.5961 28.0743 20.9432 27.3931 22.5192C26.7119 24.0952 26.5337 25.8294 26.8809 27.5025C27.2282 29.1756 28.0854 30.7124 29.344 31.9186C30.6027 33.1248 32.2064 33.9463 33.9522 34.2791C35.698 34.6119 37.5076 34.4411 39.1522 33.7883C40.7967 33.1355 42.2023 32.03 43.1912 30.6116C44.1802 29.1932 44.708 27.5257 44.708 25.8198C44.7053 23.5331 43.7562 21.3408 42.069 19.7239C40.3817 18.107 38.0941 17.1974 35.708 17.1948ZM35.708 30.1323C34.818 30.1323 33.948 29.8794 33.2079 29.4055C32.4679 28.9317 31.8911 28.2582 31.5506 27.4701C31.21 26.6821 31.1208 25.815 31.2945 24.9785C31.4681 24.142 31.8967 23.3735 32.526 22.7704C33.1554 22.1673 33.9572 21.7566 34.8301 21.5902C35.703 21.4238 36.6078 21.5092 37.4301 21.8356C38.2524 22.162 38.9552 22.7147 39.4496 23.4239C39.9441 24.1331 40.208 24.9669 40.208 25.8198C40.2066 26.9632 39.7321 28.0593 38.8885 28.8678C38.0449 29.6762 36.9011 30.131 35.708 30.1323Z" fill="#352F7C"/>
<path d="M53.0029 9.23356C48.7268 5.13675 43.0189 2.70307 36.9806 2.40224C30.9423 2.1014 25.0017 3.95474 20.3055 7.60455C15.6092 11.2544 12.4901 16.4419 11.5503 22.166C10.6104 27.8901 11.9164 33.7449 15.2161 38.6005L32.2186 63.6147C32.597 64.1713 33.1143 64.6286 33.7237 64.9452C34.3332 65.2618 35.0154 65.4276 35.7086 65.4276C36.4018 65.4276 37.084 65.2618 37.6934 64.9452C38.3028 64.6286 38.8202 64.1713 39.1985 63.6147L56.2017 38.6005C59.2634 34.0962 60.6165 28.7202 60.0341 23.3736C59.4517 18.027 56.9693 13.0347 53.0029 9.23356ZM52.4312 36.2465L35.7087 60.848L18.9859 36.2465C13.8672 28.716 14.9651 18.6382 21.5964 12.2829C23.4496 10.5068 25.6497 9.09799 28.0711 8.13678C30.4925 7.17558 33.0877 6.68086 35.7087 6.68086C38.3296 6.68086 40.9248 7.17558 43.3462 8.13678C45.7676 9.09799 47.9677 10.5068 49.8209 12.2829C56.4522 18.6382 57.55 28.716 52.4312 36.2465Z" fill="#352F7C"/>
</g>
</svg>
