<svg width="61" height="53" viewBox="0 0 61 53" fill="none" xmlns="http://www.w3.org/2000/svg">
<path d="M54.733 13.2085C54.7734 13.7896 54.7734 14.3673 54.7734 14.9451C54.7734 32.6261 42.1928 53 19.2014 53C12.1181 53 5.53755 50.8052 0 46.9934C1.0057 47.1163 1.97415 47.1594 3.0202 47.1594C8.64775 47.174 14.1159 45.161 18.5434 41.4451C15.9342 41.3945 13.4049 40.4737 11.3086 38.8111C9.21239 37.1485 7.65382 34.8272 6.85055 32.1712C7.62345 32.2941 8.39945 32.3771 9.2127 32.3771C10.3332 32.3771 11.46 32.2111 12.5061 31.9222C9.67445 31.3106 7.12828 29.6688 5.30047 27.2759C3.47265 24.883 2.47605 21.8868 2.4801 18.7967V18.6307C4.14696 19.6235 6.08075 20.2444 8.1294 20.3274C6.41316 19.1074 5.0059 17.452 4.03316 15.5088C3.06043 13.5656 2.55247 11.3951 2.5546 9.19083C2.5546 6.70718 3.1723 4.4294 4.2556 2.44381C7.39728 6.57775 11.3157 9.9597 15.757 12.3706C20.1983 14.7815 25.0635 16.1677 30.0375 16.4392C29.8451 15.4431 29.7271 14.4105 29.7271 13.3745C29.7263 11.6179 30.0491 9.87834 30.6772 8.25528C31.3052 6.63221 32.2261 5.15747 33.3873 3.91536C34.5485 2.67325 35.9271 1.68812 37.4444 1.0163C38.9617 0.344475 40.5879 -0.0008712 42.23 1.65044e-06C45.8307 1.65044e-06 49.0806 1.61371 51.3652 4.22353C54.1643 3.64451 56.8485 2.55146 59.299 0.992796C58.366 4.08346 56.4115 6.70421 53.8018 8.36405C56.2843 8.06116 58.7106 7.3628 61 6.29213C59.2901 8.95873 57.1713 11.2971 54.733 13.2085Z" fill="#5D5C64"/>
</svg>
